<svg xmlns="http://www.w3.org/2000/svg" xmlns:xlink="http://www.w3.org/1999/xlink" width="550" zoomAndPan="magnify" viewBox="0 0 412.5 112.499997" height="150" preserveAspectRatio="xMidYMid meet" version="1.0"><defs><g/><clipPath id="85659ee964"><path d="M 50 23.082031 L 132.242188 23.082031 L 132.242188 106 L 50 106 Z M 50 23.082031 " clip-rule="nonzero"/></clipPath><clipPath id="450dbe9318"><path d="M 43 23 L 50 23 L 50 41 L 43 41 Z M 43 23 " clip-rule="nonzero"/></clipPath><clipPath id="5e1c3a9eb2"><path d="M 8.757812 27.722656 L 29.203125 4.882812 L 55.382812 28.320312 L 34.9375 51.15625 Z M 8.757812 27.722656 " clip-rule="nonzero"/></clipPath><clipPath id="8456d6b770"><path d="M 8.757812 27.722656 L 29.203125 4.882812 L 55.382812 28.320312 L 34.9375 51.15625 Z M 8.757812 27.722656 " clip-rule="nonzero"/></clipPath><clipPath id="fdb557e978"><path d="M 14 30 L 40 30 L 40 43 L 14 43 Z M 14 30 " clip-rule="nonzero"/></clipPath><clipPath id="31d8e0aa71"><path d="M 8.757812 27.722656 L 29.203125 4.882812 L 55.382812 28.320312 L 34.9375 51.15625 Z M 8.757812 27.722656 " clip-rule="nonzero"/></clipPath><clipPath id="c4883ca971"><path d="M 8.757812 27.722656 L 29.203125 4.882812 L 55.382812 28.320312 L 34.9375 51.15625 Z M 8.757812 27.722656 " clip-rule="nonzero"/></clipPath><clipPath id="6d0cf1dee8"><path d="M 25 8 L 42 8 L 42 40 L 25 40 Z M 25 8 " clip-rule="nonzero"/></clipPath><clipPath id="569bc98b14"><path d="M 8.757812 27.722656 L 29.203125 4.882812 L 55.382812 28.320312 L 34.9375 51.15625 Z M 8.757812 27.722656 " clip-rule="nonzero"/></clipPath><clipPath id="6e9e42385f"><path d="M 8.757812 27.722656 L 29.203125 4.882812 L 55.382812 28.320312 L 34.9375 51.15625 Z M 8.757812 27.722656 " clip-rule="nonzero"/></clipPath></defs><g clip-path="url(#85659ee964)"><path fill="#ff7676" d="M 63.375 23.078125 C 58.558594 26.734375 60.558594 30.28125 59.371094 34.5625 C 57.925781 39.730469 53.40625 40.433594 53.445312 34.894531 C 53.480469 32.234375 53.777344 29.910156 55.890625 27.175781 C 51 29.726562 49.40625 47.042969 59.074219 39.363281 L 78.636719 23.707031 L 132.246094 66.535156 L 112.6875 66.535156 L 112.6875 105.527344 L 77.304688 105.527344 L 74.710938 103.605469 C 86.046875 101.648438 84.304688 85.921875 99.125 83.113281 C 87.640625 88.617188 85.304688 99.730469 94.234375 94.042969 C 100.125 90.351562 97.71875 82.929688 106.90625 81.453125 C 94.644531 77.242188 87.675781 81.601562 84.863281 87.878906 C 84.195312 81.453125 80.675781 74.878906 77.042969 70.300781 C 74.230469 66.792969 70.96875 63.804688 67.484375 60.960938 C 64.707031 58.671875 61.742188 56.457031 59.148438 53.945312 C 47.960938 43.203125 44.773438 25.035156 63.375 23.078125 Z M 92.417969 70.597656 C 92.679688 74.953125 91.902344 78.167969 86.269531 80.824219 C 82.863281 74.289062 82.863281 68.417969 93.53125 64.46875 C 92.53125 66.425781 92.160156 68.457031 92.417969 70.597656 Z M 92.417969 70.597656 " fill-opacity="1" fill-rule="evenodd"/></g><path fill="#ff7676" d="M 60.1875 92.972656 C 52 86.621094 46.21875 79.386719 41.328125 67.496094 C 45.847656 86.660156 57.742188 97.664062 68.300781 105.527344 C 41.550781 105.007812 19.359375 79.753906 45.777344 34.5625 C 46.21875 58.042969 61.929688 60.039062 72.785156 73.664062 C 85.824219 90.019531 79.082031 107.558594 60.1875 92.972656 Z M 60.1875 92.972656 " fill-opacity="1" fill-rule="evenodd"/><g clip-path="url(#450dbe9318)"><g clip-path="url(#5e1c3a9eb2)"><g clip-path="url(#8456d6b770)"><path fill="#ff7676" d="M 44.433594 40.210938 C 43.328125 37.238281 43.234375 33.894531 44.167969 30.847656 C 45.105469 27.800781 47.0625 25.066406 49.652344 23.199219 C 50.636719 29.214844 48.683594 35.800781 44.433594 40.210938 " fill-opacity="1" fill-rule="nonzero"/></g></g></g><g clip-path="url(#fdb557e978)"><g clip-path="url(#31d8e0aa71)"><g clip-path="url(#c4883ca971)"><path fill="#ff7676" d="M 39.628906 42.5 C 37.375 38.175781 33.660156 34.636719 29.226562 32.597656 C 24.796875 30.5625 19.675781 30.035156 14.894531 31.125 C 20.734375 38.433594 30.242188 42.917969 39.628906 42.5 " fill-opacity="1" fill-rule="nonzero"/></g></g></g><g clip-path="url(#6d0cf1dee8)"><g clip-path="url(#569bc98b14)"><g clip-path="url(#6e9e42385f)"><path fill="#ff7676" d="M 41.855469 39.8125 C 36.183594 37.003906 31.488281 32.277344 28.722656 26.582031 C 25.953125 20.882812 25.125 14.246094 26.40625 8.007812 C 36.046875 15.386719 42.132812 27.605469 41.855469 39.8125 " fill-opacity="1" fill-rule="nonzero"/></g></g></g><g fill="#ffffff" fill-opacity="1"><g transform="translate(145.32599, 49.340703)"><g><path d="M 36.3125 0 L 36.265625 -22.859375 L 24.921875 -3.9375 L 22.078125 -3.9375 L 10.734375 -22.5625 L 10.734375 0 L 4.625 0 L 4.625 -34.484375 L 9.90625 -34.484375 L 23.59375 -11.625 L 37.046875 -34.484375 L 42.3125 -34.484375 L 42.375 0 Z M 36.3125 0 "/></g></g></g><g fill="#ffffff" fill-opacity="1"><g transform="translate(192.368221, 49.340703)"><g><path d="M 20.734375 0.5 C 17.222656 0.5 14.054688 -0.265625 11.234375 -1.796875 C 8.410156 -3.328125 6.191406 -5.445312 4.578125 -8.15625 C 2.972656 -10.863281 2.171875 -13.894531 2.171875 -17.25 C 2.171875 -20.59375 2.972656 -23.617188 4.578125 -26.328125 C 6.191406 -29.035156 8.410156 -31.15625 11.234375 -32.6875 C 14.054688 -34.21875 17.222656 -34.984375 20.734375 -34.984375 C 24.253906 -34.984375 27.425781 -34.21875 30.25 -32.6875 C 33.070312 -31.15625 35.285156 -29.039062 36.890625 -26.34375 C 38.503906 -23.65625 39.3125 -20.625 39.3125 -17.25 C 39.3125 -13.863281 38.503906 -10.820312 36.890625 -8.125 C 35.285156 -5.4375 33.070312 -3.328125 30.25 -1.796875 C 27.425781 -0.265625 24.253906 0.5 20.734375 0.5 Z M 20.734375 -5.125 C 23.035156 -5.125 25.101562 -5.640625 26.9375 -6.671875 C 28.78125 -7.710938 30.226562 -9.160156 31.28125 -11.015625 C 32.332031 -12.867188 32.859375 -14.945312 32.859375 -17.25 C 32.859375 -19.539062 32.332031 -21.613281 31.28125 -23.46875 C 30.226562 -25.332031 28.78125 -26.78125 26.9375 -27.8125 C 25.101562 -28.84375 23.035156 -29.359375 20.734375 -29.359375 C 18.441406 -29.359375 16.375 -28.84375 14.53125 -27.8125 C 12.695312 -26.78125 11.253906 -25.332031 10.203125 -23.46875 C 9.148438 -21.613281 8.625 -19.539062 8.625 -17.25 C 8.625 -14.945312 9.148438 -12.867188 10.203125 -11.015625 C 11.253906 -9.160156 12.695312 -7.710938 14.53125 -6.671875 C 16.375 -5.640625 18.441406 -5.125 20.734375 -5.125 Z M 20.734375 -5.125 "/></g></g></g><g fill="#ffffff" fill-opacity="1"><g transform="translate(233.844198, 49.340703)"><g><path d="M 35.28125 -34.484375 L 35.28125 0 L 30 0 L 10.984375 -23.359375 L 10.984375 0 L 4.625 0 L 4.625 -34.484375 L 9.90625 -34.484375 L 28.921875 -11.140625 L 28.921875 -34.484375 Z M 35.28125 -34.484375 "/></g></g></g><g fill="#ffffff" fill-opacity="1"><g transform="translate(273.743896, 49.340703)"><g><path d="M 11.625 -29.0625 L 0.203125 -29.0625 L 0.203125 -34.484375 L 29.453125 -34.484375 L 29.453125 -29.0625 L 18.03125 -29.0625 L 18.03125 0 L 11.625 0 Z M 11.625 -29.0625 "/></g></g></g><g fill="#ffffff" fill-opacity="1"><g transform="translate(303.397739, 49.340703)"><g><path d="M 30.5 -5.375 L 30.5 0 L 4.625 0 L 4.625 -34.484375 L 29.8125 -34.484375 L 29.8125 -29.109375 L 11.03125 -29.109375 L 11.03125 -20.15625 L 27.6875 -20.15625 L 27.6875 -14.875 L 11.03125 -14.875 L 11.03125 -5.375 Z M 30.5 -5.375 "/></g></g></g><g fill="#ffffff" fill-opacity="1"><g transform="translate(145.32599, 97.93382)"><g><path d="M 36.15625 -34.484375 L 21.140625 0 L 14.828125 0 L -0.25 -34.484375 L 6.703125 -34.484375 L 18.171875 -7.875 L 29.75 -34.484375 Z M 36.15625 -34.484375 "/></g></g></g><g fill="#ffffff" fill-opacity="1"><g transform="translate(181.235713, 97.93382)"><g><path d="M 30.5 -5.375 L 30.5 0 L 4.625 0 L 4.625 -34.484375 L 29.8125 -34.484375 L 29.8125 -29.109375 L 11.03125 -29.109375 L 11.03125 -20.15625 L 27.6875 -20.15625 L 27.6875 -14.875 L 11.03125 -14.875 L 11.03125 -5.375 Z M 30.5 -5.375 "/></g></g></g><g fill="#ffffff" fill-opacity="1"><g transform="translate(214.239161, 97.93382)"><g><path d="M 27.1875 0 L 20.15625 -10.09375 C 19.851562 -10.0625 19.40625 -10.046875 18.8125 -10.046875 L 11.03125 -10.046875 L 11.03125 0 L 4.625 0 L 4.625 -34.484375 L 18.8125 -34.484375 C 21.800781 -34.484375 24.40625 -33.988281 26.625 -33 C 28.84375 -32.019531 30.539062 -30.609375 31.71875 -28.765625 C 32.90625 -26.929688 33.5 -24.75 33.5 -22.21875 C 33.5 -19.625 32.863281 -17.390625 31.59375 -15.515625 C 30.332031 -13.640625 28.519531 -12.242188 26.15625 -11.328125 L 34.09375 0 Z M 27.046875 -22.21875 C 27.046875 -24.414062 26.320312 -26.101562 24.875 -27.28125 C 23.4375 -28.46875 21.320312 -29.0625 18.53125 -29.0625 L 11.03125 -29.0625 L 11.03125 -15.328125 L 18.53125 -15.328125 C 21.320312 -15.328125 23.4375 -15.925781 24.875 -17.125 C 26.320312 -18.320312 27.046875 -20.019531 27.046875 -22.21875 Z M 27.046875 -22.21875 "/></g></g></g><g fill="#ffffff" fill-opacity="1"><g transform="translate(250.247397, 97.93382)"><g><path d="M 4.625 -34.484375 L 19.703125 -34.484375 C 23.378906 -34.484375 26.644531 -33.769531 29.5 -32.34375 C 32.363281 -30.914062 34.582031 -28.894531 36.15625 -26.28125 C 37.738281 -23.664062 38.53125 -20.65625 38.53125 -17.25 C 38.53125 -13.832031 37.738281 -10.816406 36.15625 -8.203125 C 34.582031 -5.585938 32.363281 -3.566406 29.5 -2.140625 C 26.644531 -0.710938 23.378906 0 19.703125 0 L 4.625 0 Z M 19.40625 -5.421875 C 21.9375 -5.421875 24.160156 -5.90625 26.078125 -6.875 C 28.003906 -7.84375 29.484375 -9.222656 30.515625 -11.015625 C 31.554688 -12.804688 32.078125 -14.882812 32.078125 -17.25 C 32.078125 -19.613281 31.554688 -21.6875 30.515625 -23.46875 C 29.484375 -25.257812 28.003906 -26.640625 26.078125 -27.609375 C 24.160156 -28.578125 21.9375 -29.0625 19.40625 -29.0625 L 11.03125 -29.0625 L 11.03125 -5.421875 Z M 19.40625 -5.421875 "/></g></g></g><g fill="#ffffff" fill-opacity="1"><g transform="translate(290.935235, 97.93382)"><g><path d="M 30.5 -5.375 L 30.5 0 L 4.625 0 L 4.625 -34.484375 L 29.8125 -34.484375 L 29.8125 -29.109375 L 11.03125 -29.109375 L 11.03125 -20.15625 L 27.6875 -20.15625 L 27.6875 -14.875 L 11.03125 -14.875 L 11.03125 -5.375 Z M 30.5 -5.375 "/></g></g></g></svg>